<svg width="82" height="43" viewBox="0 0 82 43" fill="none" xmlns="http://www.w3.org/2000/svg"><path d="M62.64 42S62 43 61 43H27c-1 0-1.5-1-1.5-1L16 23l54 5-7.36 14z" fill="url(#a)"/><path d="M34.36 1c0-1 1.14-1 1.14-1H50c.5 0 1 .64 1 .64l3 3s.36.36.36 1.36v31h-20V1z" fill="#fff"/><path d="M34.36 1c0-1 1.14-1 1.14-1H50c.5 0 1 .64 1 .64l3 3s.36.36.36 1.36v31h-20V1z" fill="url(#b)" fill-opacity=".2"/><path d="M34.36 1c0-1 1.14-1 1.14-1H50c.5 0 1 .64 1 .64l3 3s.36.36.36 1.36v31h-20V1z" fill="url(#c)"/><path d="M50.205.033A.694.694 0 0 0 50 0H35.5s-1.14 0-1.14 1v3.279L50.205.033z" fill="url(#d)"/><path d="m34.36 8.42 19.259-5.16.381.38s.36.36.36 1.36v2.202l-20 5.359V8.42z" fill="url(#e)"/><path d="M34.36 16.702v3.153l.338.897 19.662-5.268v-4.141l-20 5.359z" fill="url(#f)"/><path d="m54.36 19.625-18.243 4.888L40.452 36h1.664l12.244-4.62V19.625z" fill="url(#g)"/><path fill-rule="evenodd" clip-rule="evenodd" d="M15.905 12.918a1 1 0 0 0-.48 1.33L28.46 42h10.206l8.836-4.15a1 1 0 0 0 .48-1.33L34.98 8.835a1 1 0 0 0-.565-.515l-4.542-1.639a1 1 0 0 0-.765.036l-13.202 6.2z" fill="url(#h)"/><path d="m21.89 12.881 2.092 2.017 2.565-1.367-1.272 2.614 2.093 2.017-2.878-.402-1.272 2.613-.507-2.862-2.879-.402 2.565-1.366-.507-2.862z" fill="#907AFF"/><path fill-rule="evenodd" clip-rule="evenodd" d="M53.486 8.34a1 1 0 0 0-1.28.6L41 40h21.262l7.6-21.06a1 1 0 0 0-.036-.764l-2.053-4.37a1 1 0 0 0-.566-.516l-13.72-4.95z" fill="#F8F7FF"/><path opacity=".4" fill-rule="evenodd" clip-rule="evenodd" d="m51.164 11.829 18.745 6.63a.999.999 0 0 1-.049.481l-7.36 20.4a1 1 0 0 1-.941.66H42.423a1 1 0 0 1-.94-1.34l9.681-26.831z" fill="url(#i)"/><g opacity=".4" fill-rule="evenodd" clip-rule="evenodd"><path d="M44.565 40 56.078 9.275l11.128 4.015a1 1 0 0 1 .566.516l2.053 4.37a1 1 0 0 1 .035.764L62.261 40H44.565z" fill="url(#j)"/><path d="M44.565 40 56.078 9.275l11.128 4.015a1 1 0 0 1 .566.516l2.053 4.37a1 1 0 0 1 .035.764L62.261 40H44.565z" fill="url(#k)"/></g><path d="M34.941 17H25.36a1 1 0 0 0-1 1l2 24a1 1 0 0 0 1 1h34a1 1 0 0 0 1-1l1.9-19s.24-1-.9-1h-20a7.997 7.997 0 0 1-6.93-4c-.185-.32-.43-1-1.489-1z" fill="#F8F7FF"/><path d="M34.941 17H25.36a1 1 0 0 0-1 1l2 24a1 1 0 0 0 1 1h34a1 1 0 0 0 1-1l1.9-19s.24-1-.9-1h-20a7.997 7.997 0 0 1-6.93-4c-.185-.32-.43-1-1.489-1z" fill="url(#l)"/><path fill-rule="evenodd" clip-rule="evenodd" d="M48.807 32.82c0-.672-.397-1.169-.932-1.603-.525-.425-1.295-.88-2.255-1.445l-.448-.264c-.96-.566-1.73-1.02-2.354-1.272-.636-.256-1.255-.359-1.826-.022-.57.336-.793.935-.894 1.626C40 30.517 40 31.425 40 32.557v.528c0 1.132 0 2.04.098 2.717.1.69.323 1.29.894 1.626.572.337 1.19.234 1.826-.022.624-.252 1.394-.706 2.354-1.272l.448-.264c.96-.566 1.73-1.02 2.255-1.446.535-.434.932-.93.932-1.603z" fill="#907AFF"/><circle cx="79" cy="28" r="2" fill="#907AFF"/><circle cx="3" cy="11" r="2" fill="#907AFF"/><circle cx="70.5" cy="5.5" r="2.5" fill="#907AFF"/><circle cx="9.5" cy="39.5" r="2.5" fill="#907AFF"/><path d="m41.699 43 8.21-21h13.452c1.139 0 .9 1 .9 1l-1.9 19a1 1 0 0 1-1 1H41.699z" fill="url(#m)" fill-opacity=".2"/><defs><linearGradient id="a" x1="43.36" y1="43" x2="44.5" y2="25.5" gradientUnits="userSpaceOnUse"><stop stop-color="#5C6195"/><stop offset="1" stop-color="#D5D7EA" stop-opacity="0"/></linearGradient><linearGradient id="b" x1="67.5" y1="2" x2="44.36" y2="36" gradientUnits="userSpaceOnUse"><stop stop-color="#907AFF"/><stop offset="1" stop-color="#F7F6FF"/></linearGradient><linearGradient id="c" x1="41.86" y1="37" x2="46.86" y2="7.5" gradientUnits="userSpaceOnUse"><stop stop-color="#907AFF"/><stop offset="1" stop-color="#C3B5FF" stop-opacity="0"/></linearGradient><linearGradient id="d" x1="59.36" y1="-9.5" x2="43.36" y2="20" gradientUnits="userSpaceOnUse"><stop stop-color="#907AFF"/><stop offset="1" stop-color="#C3B5FF"/></linearGradient><linearGradient id="e" x1="59.36" y1="-9.5" x2="43.36" y2="20" gradientUnits="userSpaceOnUse"><stop stop-color="#907AFF"/><stop offset="1" stop-color="#C3B5FF"/></linearGradient><linearGradient id="f" x1="59.36" y1="-9.5" x2="43.36" y2="20" gradientUnits="userSpaceOnUse"><stop stop-color="#907AFF"/><stop offset="1" stop-color="#C3B5FF"/></linearGradient><linearGradient id="g" x1="59.36" y1="-9.5" x2="43.36" y2="20" gradientUnits="userSpaceOnUse"><stop stop-color="#907AFF"/><stop offset="1" stop-color="#C3B5FF"/></linearGradient><linearGradient id="h" x1="22.545" y1="8.078" x2="34.646" y2="32.353" gradientUnits="userSpaceOnUse"><stop stop-color="#C3B5FF"/><stop offset="1" stop-color="#E9E5FF"/></linearGradient><linearGradient id="i" x1="64" y1="27.5" x2="41" y2="23" gradientUnits="userSpaceOnUse"><stop stop-color="#907AFF"/><stop offset="1" stop-color="#C8BDFF"/></linearGradient><linearGradient id="j" x1="72.411" y1="8" x2="77.422" y2="19.488" gradientUnits="userSpaceOnUse"><stop stop-color="#C3B5FF"/><stop offset="1" stop-color="#C3B5FF" stop-opacity="0"/></linearGradient><linearGradient id="k" x1="61" y1="11" x2="55.5" y2="41" gradientUnits="userSpaceOnUse"><stop stop-color="#907AFF"/><stop offset="1" stop-color="#C8BDFF"/></linearGradient><linearGradient id="l" x1="44.32" y1="17" x2="60.5" y2="57" gradientUnits="userSpaceOnUse"><stop stop-color="#C8BDFF" stop-opacity="0"/><stop offset="1" stop-color="#D4CBFF"/></linearGradient><linearGradient id="m" x1="55" y1="26.5" x2="50" y2="55" gradientUnits="userSpaceOnUse"><stop stop-color="#907AFF"/><stop offset="1" stop-color="#F8F7FF" stop-opacity="0"/></linearGradient></defs></svg>