<svg width="82" height="43" viewBox="0 0 82 43" fill="none" xmlns="http://www.w3.org/2000/svg"><path d="M59.504 19C47.628 19 38 28.628 38 40.504c0 0 0 .496 1 .496h41c1 0 1.009-.496 1.009-.496C81.009 28.628 71.38 19 59.504 19z" fill="#F8F7FF"/><path d="M59.504 19C47.628 19 38 28.628 38 40.504c0 0 0 .496 1 .496h41c1 0 1.009-.496 1.009-.496C81.009 28.628 71.38 19 59.504 19z" fill="url(#a)"/><path d="M59.504 19C47.628 19 38 28.628 38 40.504c0 0 0 .496 1 .496h41c1 0 1.009-.496 1.009-.496C81.009 28.628 71.38 19 59.504 19z" fill="#907AFF" fill-opacity=".2"/><path d="M28 1s0-1 1-1h6c1 0 1 1 1 1v41s0 1-1 1H21s-1 0-1-1V9c0-1 1-1 1-1 4.418 0 7-2.582 7-7z" fill="url(#b)"/><path d="M28 1s0-1 1-1h6c1 0 1 1 1 1v41s0 1-1 1H21s-1 0-1-1V9c0-1 1-1 1-1 4.418 0 7-2.582 7-7z" fill="url(#c)" fill-opacity=".2"/><path fill-rule="evenodd" clip-rule="evenodd" d="M68.205 20.833c-6.661 10.068-17.608 16.76-30.058 17.15C39.395 27.293 48.48 19 59.505 19c3.096 0 6.04.654 8.7 1.833z" fill="url(#d)" fill-opacity=".3"/><path fill-rule="evenodd" clip-rule="evenodd" d="M80.178 40.994A2.688 2.688 0 0 1 80 41H39c-1 0-1-.496-1-.496C38 28.628 47.628 19 59.504 19c11.756 0 21.308 9.432 21.502 21.14-.272.29-.548.574-.828.854z" fill="url(#e)" fill-opacity=".3"/><path d="M24 12c.497 12.247 9.262 21 20 21s19.503-8.753 20-21c0 0 0-1-1-1H25c-1 0-1 1-1 1z" fill="#F8F7FF"/><path d="M24 12c.497 12.247 9.262 21 20 21s19.503-8.753 20-21c0 0 0-1-1-1H25c-1 0-1 1-1 1z" fill="url(#f)" fill-opacity=".2"/><path d="M24 12c.497 12.247 9.262 21 20 21s19.503-8.753 20-21c0 0 0-1-1-1H25c-1 0-1 1-1 1z" fill="#907AFF"/><circle cx="36" cy="18" r="14" fill="url(#g)"/><path fill-rule="evenodd" clip-rule="evenodd" d="M42.208 5.448A13.942 13.942 0 0 0 36 4a13.987 13.987 0 0 0-11.65 6.233l17.858-4.785zm-19.866 9.464 23.94-6.415a14.024 14.024 0 0 1 2.372 3.506l-26.609 7.13a14.15 14.15 0 0 1 .297-4.22zm.591 8.124a13.98 13.98 0 0 0 2.042 3.594l24.889-6.67a14.124 14.124 0 0 0-.031-4.132l-26.9 7.208zm25.474 1.456-19.904 5.334A13.935 13.935 0 0 0 36 32c5.389 0 10.066-3.045 12.407-7.508z" fill="url(#h)"/><path d="M50 18c0 7.732-6.268 14-14 14s-14-6.268-14-14S28.268 4 36 4s14 6.268 14 14z" fill="url(#i)"/><circle cx="74" cy="9" r="8" fill="url(#j)" fill-opacity=".8"/><circle cx="74" cy="9" r="8" fill="#907AFF" fill-opacity=".2"/><path d="M30 23v4s0 1-1 1h-5a4 4 0 0 0-4 4v2H1s-1 0-1-1V17s0-1 1-1h6c1 0 1 1 1 1v1a4 4 0 0 0 4 4h17s1 0 1 1z" fill="url(#k)"/><path d="M30 23v4s0 1-1 1h-5a4 4 0 0 0-4 4v2H1s-1 0-1-1V17s0-1 1-1h6c1 0 1 1 1 1v1a4 4 0 0 0 4 4h17s1 0 1 1z" fill="#907AFF" fill-opacity=".2"/><path d="m6 26-.674 2.073h-2.18l1.764 1.281-.673 2.073L6 30.146l1.763 1.281-.673-2.073 1.763-1.281h-2.18L6 26z" fill="url(#l)"/><path fill-rule="evenodd" clip-rule="evenodd" d="M71.923 16.728A8 8 0 1 0 75.96 1.242c-.248 5.582-1.68 10.835-4.038 15.486z" fill="url(#m)"/><defs><linearGradient id="a" x1="55" y1="44.5" x2="55.5" y2="24" gradientUnits="userSpaceOnUse"><stop stop-color="#D8CFFF"/><stop offset="1" stop-color="#ECEEFE" stop-opacity=".2"/></linearGradient><linearGradient id="b" x1="22.5" y1="44.5" x2="54" y2="-19.5" gradientUnits="userSpaceOnUse"><stop stop-color="#907AFF"/><stop offset="1" stop-color="#F8F7FF"/><stop offset="1" stop-color="#797A9F"/></linearGradient><linearGradient id="c" x1="28" y1="-22.5" x2="28" y2="60" gradientUnits="userSpaceOnUse"><stop stop-color="#ECEEFE" stop-opacity="0"/><stop offset="1" stop-color="#797A9F"/></linearGradient><linearGradient id="d" x1="65" y1="19" x2="68" y2="44" gradientUnits="userSpaceOnUse"><stop stop-color="#907AFF"/><stop offset="1" stop-color="#D9D9D9" stop-opacity="0"/></linearGradient><linearGradient id="e" x1="65" y1="19" x2="68" y2="44" gradientUnits="userSpaceOnUse"><stop stop-color="#907AFF"/><stop offset="1" stop-color="#D9D9D9" stop-opacity="0"/></linearGradient><linearGradient id="f" x1="40" y1="39.5" x2="68.891" y2=".288" gradientUnits="userSpaceOnUse"><stop stop-color="#797A9F"/><stop offset="1" stop-color="#ECEEFE"/></linearGradient><linearGradient id="g" x1="53.5" y1="67" x2="34.5" y2="18" gradientUnits="userSpaceOnUse"><stop stop-color="#797A9F"/><stop offset="1" stop-color="#F8F7FF"/></linearGradient><linearGradient id="h" x1="35.939" y1=".651" x2="35.939" y2="32" gradientUnits="userSpaceOnUse"><stop stop-color="#907AFF"/><stop offset="1" stop-color="#C3B5FF" stop-opacity="0"/></linearGradient><linearGradient id="i" x1="86.5" y1="55" x2="24" y2="4" gradientUnits="userSpaceOnUse"><stop stop-color="#907AFF"/><stop offset="1" stop-color="#C3B5FF" stop-opacity="0"/></linearGradient><linearGradient id="j" x1="68.5" y1="14" x2="80.5" y2="1" gradientUnits="userSpaceOnUse"><stop offset=".011" stop-color="#D8CFFF"/><stop offset="1" stop-color="#ECEEFE"/></linearGradient><linearGradient id="k" x1="13.5" y1="49" x2="13.5" y2="17" gradientUnits="userSpaceOnUse"><stop stop-color="#907AFF"/><stop offset="1" stop-color="#F8F7FF"/></linearGradient><linearGradient id="l" x1="6" y1="26" x2="6" y2="32" gradientUnits="userSpaceOnUse"><stop stop-color="#907AFF"/><stop offset="1" stop-color="#C3B5FF" stop-opacity="0"/></linearGradient><linearGradient id="m" x1="80.542" y1="20.547" x2="84.727" y2="-8.045" gradientUnits="userSpaceOnUse"><stop stop-color="#907AFF"/><stop offset="1" stop-color="#ECEEFE" stop-opacity="0"/></linearGradient></defs></svg>