<svg width="82" height="44" viewBox="0 0 82 44" fill="none" xmlns="http://www.w3.org/2000/svg"><ellipse cx="63.582" cy="15.792" rx="7.535" ry="8.791" fill="#F8F7FF"/><ellipse cx="63.582" cy="15.792" rx="7.535" ry="8.791" fill="url(#a)" fill-opacity=".2"/><g opacity=".9"><path d="M56.452 12.024c1.355-3.414 3.892-5.023 7.116-5.023L71 7l-1 2h1s-.53 1.195-.5 2c.015.406.093.794.184 1.024.84 2.117.677 4.605.258 6.698l-4.184-4.997c-.97.53-2.05.826-3.19.826a6.627 6.627 0 0 1-3.335-.908l-3.942 4.66c-.418-2.093-.663-4.205.16-6.279z" fill="url(#b)"/><path d="M56.452 12.024c1.355-3.414 3.892-5.023 7.116-5.023L71 7l-1 2h1s-.53 1.195-.5 2c.015.406.093.794.184 1.024.84 2.117.677 4.605.258 6.698l-4.184-4.997c-.97.53-2.05.826-3.19.826a6.627 6.627 0 0 1-3.335-.908l-3.942 4.66c-.418-2.093-.663-4.205.16-6.279z" fill="url(#c)"/><path d="M56.452 12.024c1.355-3.414 3.892-5.023 7.116-5.023L71 7l-1 2h1s-.53 1.195-.5 2c.015.406.093.794.184 1.024.84 2.117.677 4.605.258 6.698l-4.184-4.997c-.97.53-2.05.826-3.19.826a6.627 6.627 0 0 1-3.335-.908l-3.942 4.66c-.418-2.093-.663-4.205.16-6.279z" fill="url(#d)" fill-opacity=".2"/></g><g opacity=".9"><path d="M64 24.582c-9.941 0-18 8.059-18 18 0 0 0 .418 1 .42h34c1-.002 1-.42 1-.42 0-9.941-8.059-18-18-18z" fill="#F8F7FF"/><path d="M64 24.582c-9.941 0-18 8.059-18 18 0 0 0 .418 1 .42h34c1-.002 1-.42 1-.42 0-9.941-8.059-18-18-18z" fill="url(#e)"/></g><path opacity=".9" d="M57.236 25.896C50.647 28.57 46 35.033 46 42.582c0 0 0 .42 1 .42h34c1-.002 1-.42 1-.42 0-7.546-4.644-14.008-11.23-16.683-1.65 2.272-4.07 3.707-6.766 3.707-2.698 0-5.118-1.436-6.768-3.71z" fill="url(#f)"/><path opacity=".9" d="M55.078 26.946C49.655 30.046 46 35.888 46 42.582c0 0 0 .418 1 .42h34c1-.002 1-.42 1-.42 0-6.694-3.654-12.535-9.077-15.636-2.068 3.147-5.296 5.172-8.923 5.172s-6.854-2.025-8.922-5.172z" fill="url(#g)"/><path opacity=".9" fill-rule="evenodd" clip-rule="evenodd" d="M52.972 43.001c.365-1.317.563-2.724.563-4.186 0-3.267-.988-6.261-2.628-8.586a18.075 18.075 0 0 1 4.17-3.283c2.068 3.147 5.295 5.172 8.922 5.172 3.627 0 6.854-2.025 8.922-5.172a18.075 18.075 0 0 1 4.17 3.283c-1.64 2.325-2.627 5.319-2.627 8.586 0 1.462.198 2.87.563 4.186H52.972z" fill="url(#h)"/><path d="M63.581 20.396V16.21c.675.859 1.925 3.172 1.63 3.36-.295.188-1.63.826-1.63.826z" fill="url(#i)" fill-opacity=".2"/><path d="M63.581 20.396V16.21c.675.859 1.925 3.172 1.63 3.36-.295.188-1.63.826-1.63.826z" fill="#907AFF" fill-opacity=".2"/><path d="m71.117 33.792.751 2.314h2.434l-1.969 1.43.752 2.314-1.968-1.43-1.969 1.43.752-2.314-1.968-1.43h2.433l.752-2.314z" fill="#907AFF"/><path opacity=".9" fill-rule="evenodd" clip-rule="evenodd" d="M68.2 25.073a18.052 18.052 0 0 0-4.196-.492c-1.22 0-2.413.122-3.565.354 1.155.837 2.519 1.32 3.98 1.32 1.378 0 2.67-.43 3.782-1.182z" fill="url(#j)" fill-opacity=".2"/><g opacity=".9"><path d="M18 24.581c-9.941 0-18 8.06-18 18 0 0 0 .42 1 .42h34c1 0 1-.42 1-.42 0-9.94-8.059-18-18-18z" fill="#F8F7FF"/><path d="M18 24.581c-9.941 0-18 8.06-18 18 0 0 0 .42 1 .42h34c1 0 1-.42 1-.42 0-9.94-8.059-18-18-18z" fill="url(#k)"/></g><path opacity=".9" d="M26.74 26.842c-.47 8.613-4.204 15.32-8.74 15.32-4.536 0-8.27-6.707-8.74-15.32C3.735 29.916 0 35.812 0 42.582c0 0 0 .418 1 .418h34c1 0 1-.419 1-.419 0-6.769-3.736-12.665-9.26-15.739z" fill="url(#l)"/><path opacity=".9" d="M13.243 25.216C5.61 27.302 0 34.286 0 42.581c0 0 0 .42 1 .419h34c1 0 1-.419 1-.419 0-8.568-5.987-15.739-14.006-17.555-1.075 2.806-2.653 4.579-4.413 4.579-1.719 0-3.265-1.693-4.338-4.389z" fill="url(#m)"/><path fill-rule="evenodd" clip-rule="evenodd" d="M23.078 25.307c-.605 4.521-1.902 7.646-3.404 7.646-.774 0-1.494-.83-2.093-2.255-.598 1.425-1.318 2.255-2.093 2.255-1.473 0-2.749-3.007-3.368-7.39a18.7 18.7 0 0 1 1.123-.347c1.072 2.696 2.619 4.389 4.338 4.389 1.76 0 3.338-1.773 4.413-4.58.366.084.727.178 1.084.282z" fill="url(#n)"/><ellipse cx="17.581" cy="15.791" rx="7.535" ry="8.791" fill="#F8F7FF"/><ellipse cx="17.581" cy="15.791" rx="7.535" ry="8.791" fill="url(#o)" fill-opacity=".2"/><path opacity=".9" fill-rule="evenodd" clip-rule="evenodd" d="M24.17 25.665a17.97 17.97 0 0 0-6.166-1.084 18 18 0 0 0-5.498.855c1.382 2.03 3.517 3.331 5.913 3.331 2.304 0 4.368-1.204 5.751-3.102z" fill="url(#p)" fill-opacity=".2"/><path fill-rule="evenodd" clip-rule="evenodd" d="M25.055 16.918c-.205 1.871-.915 3.559-1.965 4.87a8.384 8.384 0 0 1-2.16.282h-1.475a2.513 2.513 0 0 0-3.747 0h-.638a8.345 8.345 0 0 1-3.292-.672c-.887-1.25-1.485-2.79-1.67-4.48a7.62 7.62 0 0 0-.061.966v2.512a7.535 7.535 0 0 0 15.07 0v-2.512a7.5 7.5 0 0 0-.062-.966z" fill="url(#q)"/><path fill-rule="evenodd" clip-rule="evenodd" d="M25.055 16.918c-.205 1.871-.915 3.559-1.965 4.87a8.384 8.384 0 0 1-2.16.282h-1.475a2.513 2.513 0 0 0-3.747 0h-.638a8.345 8.345 0 0 1-3.292-.672c-.887-1.25-1.485-2.79-1.67-4.48a7.62 7.62 0 0 0-.061.966v2.512a7.535 7.535 0 0 0 15.07 0v-2.512a7.5 7.5 0 0 0-.062-.966z" fill="url(#r)"/><path fill-rule="evenodd" clip-rule="evenodd" d="M25.055 16.918c-.205 1.871-.915 3.559-1.965 4.87a8.384 8.384 0 0 1-2.16.282h-1.475a2.513 2.513 0 0 0-3.747 0h-.638a8.345 8.345 0 0 1-3.292-.672c-.887-1.25-1.485-2.79-1.67-4.48a7.62 7.62 0 0 0-.061.966v2.512a7.535 7.535 0 0 0 15.07 0v-2.512a7.5 7.5 0 0 0-.062-.966z" fill="url(#s)" fill-opacity=".2"/><g opacity=".9"><path d="M10.452 12.023C11.807 8.61 14.344 7 17.568 7c3.224 0 5.76 1.609 7.116 5.023.84 2.117.677 4.605.258 6.698l-4.184-4.997c-.97.53-2.05.826-3.19.826a6.628 6.628 0 0 1-3.336-.908l-3.941 4.66c-.419-2.093-.663-4.205.16-6.279z" fill="url(#t)"/><path d="M10.452 12.023C11.807 8.61 14.344 7 17.568 7c3.224 0 5.76 1.609 7.116 5.023.84 2.117.677 4.605.258 6.698l-4.184-4.997c-.97.53-2.05.826-3.19.826a6.628 6.628 0 0 1-3.336-.908l-3.941 4.66c-.419-2.093-.663-4.205.16-6.279z" fill="url(#u)"/></g><path d="M17.581 20.395V16.21c.675.859 1.926 3.172 1.63 3.36-.295.188-1.63.826-1.63.826z" fill="url(#v)" fill-opacity=".2"/><path d="M17.581 20.395V16.21c.675.859 1.926 3.172 1.63 3.36-.295.188-1.63.826-1.63.826z" fill="#907AFF" fill-opacity=".2"/><circle cx="17.581" cy="35.465" r=".837" fill="url(#w)" fill-opacity=".6"/><circle cx="17.581" cy="39.651" r=".837" fill="url(#x)" fill-opacity=".3"/><g opacity=".9"><path d="M50.129 7c-1.308-4.078-4.835-7-8.982-7-4.722 0-8.642 3.79-9.393 8.761l-2.75 10.314C29 20 29.661 20.569 30 20.8c2.976 2.03 6.484 3.2 10.24 3.2 4.417 0 8.49-1.27 11.76-4 .5-.5 1.176-1.632 1.004-2.246-.948-3.904-1.702-6.91-2.875-10.754z" fill="url(#y)"/><path d="M50.129 7c-1.308-4.078-4.835-7-8.982-7-4.722 0-8.642 3.79-9.393 8.761l-2.75 10.314C29 20 29.661 20.569 30 20.8c2.976 2.03 6.484 3.2 10.24 3.2 4.417 0 8.49-1.27 11.76-4 .5-.5 1.176-1.632 1.004-2.246-.948-3.904-1.702-6.91-2.875-10.754z" fill="url(#z)"/></g><path d="M41.504 21C29.628 21 20 30.628 20 42.504c0 0 0 .496 1 .496h41c1 0 1.009-.496 1.009-.496C63.009 30.628 53.38 21 41.504 21z" fill="#F8F7FF"/><path d="M41.504 21C29.628 21 20 30.628 20 42.504c0 0 0 .496 1 .496h41c1 0 1.009-.496 1.009-.496C63.009 30.628 53.38 21 41.504 21z" fill="url(#A)"/><path opacity=".9" d="M32.004 11c.224 5.567 4.168 10 9 10 4.833 0 8.777-4.433 9-10h-18z" fill="#F8F7FF"/><g opacity=".9"><path d="M32.004 11c.224 5.567 4.168 10 9 10 4.833 0 8.777-4.433 9-10h-18z" fill="#F8F7FF"/><path d="M32.004 11c.224 5.567 4.168 10 9 10 4.833 0 8.777-4.433 9-10h-18z" fill="url(#B)" fill-opacity=".2"/></g><path opacity=".9" fill-rule="evenodd" clip-rule="evenodd" d="M46.517 21.587A21.566 21.566 0 0 0 41.505 21a21.61 21.61 0 0 0-4.258.422C38.627 22.422 40.255 23 42 23c1.646 0 3.19-.514 4.517-1.413z" fill="url(#C)" fill-opacity=".2"/><path d="M41 16v-5c.806 1.025 2.3 3.789 1.947 4.013C42.595 15.237 41 16 41 16z" fill="url(#D)" fill-opacity=".2"/><path d="M41 16v-5c.806 1.025 2.3 3.789 1.947 4.013C42.595 15.237 41 16 41 16z" fill="#907AFF" fill-opacity=".2"/><path fill-rule="evenodd" clip-rule="evenodd" d="M31 43V25.423c.872 2.241 2.267 4.139 4 5.475V43h-4zm12 0h-4V32.786a9.413 9.413 0 0 0 4 0V43zm8 0h-4V30.898c1.733-1.336 3.128-3.233 4-5.474V43z" fill="url(#E)"/><path d="M51.595 23.51C50.299 28.983 46.046 33 41 33c-4.893 0-9.039-3.775-10.468-8.994a21.548 21.548 0 0 0-3.085 2.224c-.396 5.32-.659 10.94-.768 16.77h28.833a301.189 301.189 0 0 0-.823-17.485 21.525 21.525 0 0 0-3.094-2.006z" fill="url(#F)"/><path opacity=".9" fill-rule="evenodd" clip-rule="evenodd" d="M32.004 11c.01.245.027.489.052.73l17.497 2.098c.256-.895.412-1.844.451-2.828h-18z" fill="url(#G)" fill-opacity=".2"/><defs><linearGradient id="a" x1="72.372" y1="24.582" x2="57.721" y2="9.094" gradientUnits="userSpaceOnUse"><stop stop-color="#797A9F"/><stop offset="1" stop-color="#F8F7FF" stop-opacity="0"/></linearGradient><linearGradient id="b" x1="63.742" y1="19.559" x2="50.347" y2="-12.673" gradientUnits="userSpaceOnUse"><stop stop-color="#B6B9D1"/><stop offset="1" stop-color="#ECEEFE"/></linearGradient><linearGradient id="c" x1="72" y1="19" x2="54" y2="3.5" gradientUnits="userSpaceOnUse"><stop stop-color="#907AFF"/><stop offset="1" stop-color="#C8BDFF"/></linearGradient><linearGradient id="d" x1="70" y1="18" x2="58" y2="7.5" gradientUnits="userSpaceOnUse"><stop stop-color="#797A9F"/><stop offset="1" stop-opacity="0"/></linearGradient><linearGradient id="e" x1="64" y1="24.582" x2="64" y2="43.001" gradientUnits="userSpaceOnUse"><stop stop-color="#ECEEFE" stop-opacity=".2"/><stop offset="1" stop-color="#B6B9D1"/></linearGradient><linearGradient id="f" x1="64" y1="25.896" x2="64" y2="43.001" gradientUnits="userSpaceOnUse"><stop stop-color="#907AFF"/><stop offset="1" stop-color="#C3B5FF" stop-opacity="0"/></linearGradient><linearGradient id="g" x1="64" y1="25.896" x2="64" y2="43.001" gradientUnits="userSpaceOnUse"><stop stop-color="#907AFF"/><stop offset="1" stop-color="#C3B5FF" stop-opacity="0"/></linearGradient><linearGradient id="h" x1="64" y1="25.896" x2="64" y2="43.001" gradientUnits="userSpaceOnUse"><stop stop-color="#907AFF"/><stop offset="1" stop-color="#C3B5FF" stop-opacity="0"/></linearGradient><linearGradient id="i" x1="65.256" y1="19.14" x2="63.163" y2="15.792" gradientUnits="userSpaceOnUse"><stop stop-color="#5C6195"/><stop offset="1" stop-color="#ECEEFF" stop-opacity=".85"/></linearGradient><linearGradient id="j" x1="69.857" y1="27.93" x2="58.136" y2="14.535" gradientUnits="userSpaceOnUse"><stop stop-color="#797A9F"/><stop offset="1" stop-color="#F8F7FF" stop-opacity="0"/></linearGradient><linearGradient id="k" x1="18" y1="24.581" x2="18" y2="43" gradientUnits="userSpaceOnUse"><stop stop-color="#ECEEFE" stop-opacity=".2"/><stop offset="1" stop-color="#B6B9D1"/></linearGradient><linearGradient id="l" x1="18" y1="25.895" x2="18" y2="43" gradientUnits="userSpaceOnUse"><stop stop-color="#907AFF"/><stop offset="1" stop-color="#C3B5FF" stop-opacity="0"/></linearGradient><linearGradient id="m" x1="18" y1="23.875" x2="18" y2="43" gradientUnits="userSpaceOnUse"><stop stop-color="#907AFF"/><stop offset="1" stop-color="#C3B5FF" stop-opacity="0"/></linearGradient><linearGradient id="n" x1="18" y1="34.209" x2="15.907" y2="1.558" gradientUnits="userSpaceOnUse"><stop stop-color="#907AFF"/><stop offset="1" stop-color="#C3B5FF" stop-opacity="0"/></linearGradient><linearGradient id="o" x1="26.372" y1="24.581" x2="11.721" y2="9.093" gradientUnits="userSpaceOnUse"><stop stop-color="#797A9F"/><stop offset="1" stop-color="#F8F7FF" stop-opacity="0"/></linearGradient><linearGradient id="p" x1="23.857" y1="27.93" x2="12.136" y2="14.535" gradientUnits="userSpaceOnUse"><stop stop-color="#797A9F"/><stop offset="1" stop-color="#F8F7FF" stop-opacity="0"/></linearGradient><linearGradient id="q" x1="20.093" y1="30.023" x2="12.977" y2="11.605" gradientUnits="userSpaceOnUse"><stop stop-color="#B6B9D1"/><stop offset="1" stop-color="#ECEEFE"/></linearGradient><linearGradient id="r" x1="19.5" y1="25.5" x2="8" y2="16" gradientUnits="userSpaceOnUse"><stop stop-color="#907AFF"/><stop offset="1" stop-color="#C8BDFF"/></linearGradient><linearGradient id="s" x1="21" y1="26.5" x2="9" y2="14.5" gradientUnits="userSpaceOnUse"><stop stop-color="#797A9F"/><stop offset="1" stop-opacity="0"/></linearGradient><linearGradient id="t" x1="17.742" y1="19.558" x2="4.347" y2="-12.674" gradientUnits="userSpaceOnUse"><stop stop-color="#B6B9D1"/><stop offset="1" stop-color="#ECEEFE"/></linearGradient><linearGradient id="u" x1="24.5" y1="19" x2="10" y2="5" gradientUnits="userSpaceOnUse"><stop stop-color="#907AFF"/><stop offset="1" stop-color="#C8BDFF"/></linearGradient><linearGradient id="v" x1="19.256" y1="19.14" x2="17.163" y2="15.791" gradientUnits="userSpaceOnUse"><stop stop-color="#5C6195"/><stop offset="1" stop-color="#ECEEFF" stop-opacity=".85"/></linearGradient><linearGradient id="w" x1="23.442" y1="43" x2="17.163" y2="34.628" gradientUnits="userSpaceOnUse"><stop stop-color="#797A9F"/><stop offset="1" stop-color="#F8F7FF"/></linearGradient><linearGradient id="x" x1="23.442" y1="47.186" x2="17.163" y2="38.814" gradientUnits="userSpaceOnUse"><stop stop-color="#797A9F"/><stop offset="1" stop-color="#F8F7FF"/></linearGradient><linearGradient id="y" x1="50.024" y1="21.5" x2="29.026" y2="-2.024" gradientUnits="userSpaceOnUse"><stop stop-color="#B6B9D1"/><stop offset="1" stop-color="#ECEEFE"/></linearGradient><linearGradient id="z" x1="45.5" y1="19" x2="29" y2="-4.5" gradientUnits="userSpaceOnUse"><stop stop-color="#907AFF"/><stop offset="1" stop-color="#C8BDFF"/></linearGradient><linearGradient id="A" x1="37" y1="46.5" x2="37.5" y2="26" gradientUnits="userSpaceOnUse"><stop stop-color="#B6B9D1"/><stop offset="1" stop-color="#ECEEFE" stop-opacity=".2"/></linearGradient><linearGradient id="B" x1="47.5" y1="22" x2="33.5" y2="6" gradientUnits="userSpaceOnUse"><stop stop-color="#797A9F"/><stop offset="1" stop-color="#F8F7FF" stop-opacity="0"/></linearGradient><linearGradient id="C" x1="48.496" y1="25" x2="34.496" y2="9" gradientUnits="userSpaceOnUse"><stop stop-color="#797A9F"/><stop offset="1" stop-color="#F8F7FF" stop-opacity="0"/></linearGradient><linearGradient id="D" x1="43" y1="14.5" x2="40.5" y2="10.5" gradientUnits="userSpaceOnUse"><stop stop-color="#5C6195"/><stop offset="1" stop-color="#ECEEFF" stop-opacity=".85"/></linearGradient><linearGradient id="E" x1="41" y1="26.348" x2="41" y2="47.163" gradientUnits="userSpaceOnUse"><stop stop-color="#C3B5FF" stop-opacity="0"/><stop offset="1" stop-color="#907AFF"/></linearGradient><linearGradient id="F" x1="41" y1="22.158" x2="41" y2="48.211" gradientUnits="userSpaceOnUse"><stop stop-color="#907AFF"/><stop offset="1" stop-color="#C3B5FF" stop-opacity="0"/></linearGradient><linearGradient id="G" x1="44.249" y1="15" x2="30.249" y2="-1" gradientUnits="userSpaceOnUse"><stop stop-color="#797A9F"/><stop offset="1" stop-color="#F8F7FF" stop-opacity="0"/></linearGradient></defs></svg>