<svg xmlns="http://www.w3.org/2000/svg" xmlns:xlink="http://www.w3.org/1999/xlink" version="1.0" viewBox="0 0 250 80">
	<g fill="#333">
		<g transform="matrix(1,0,0,1,0,0)" opacity="1">
			<g>
				<rect fill="#333" fill-opacity="0" stroke-width="2" x="0" y="0" width="60" height="76" /> <svg x="0"
					y="0" width="60" height="76" filtersec="colorsb8851147891" class="image-svg-svg primary"
					style="overflow: visible;"><svg xmlns="http://www.w3.org/2000/svg" viewBox="0 0 78 99">
						<path
							d="M0 23.86v52.9l7.82 6.17V28.8L56.74 5.48A5.47 5.47 0 0 0 48.92.54zM47.18 59.94l-14.09 6.72 7.34 5.16L55 64.88a3.06 3.06 0 0 0 1.74-2.76V34.88l-7.82 3.72v18.58a3.06 3.06 0 0 1-1.74 2.76z"
							fill="#f7d50d" />
						<path
							d="M67.53 29.74v39.93a3.06 3.06 0 0 1-1.74 2.76L51.2 79.38l-7.35-5.16L58 67.49a3.06 3.06 0 0 0 1.74-2.76V33.47zM67.53 13L18.61 36.35v55.12l-7.82-6.18V31.41L59.7 8.09A5.48 5.48 0 0 1 67.53 13z"
							fill="#db0680" />
						<path
							d="M78.32 20.58v55.11a5.47 5.47 0 0 1-3.12 4.94L62 86.94l-7.33-5.16L68.76 75a3.06 3.06 0 0 0 1.74-2.76V26.75a1.54 1.54 0 0 0-2.21-1.39L29.4 43.9V100l-7.82-6.18V39l48.91-23.36a5.48 5.48 0 0 1 7.83 4.94z"
							fill="#0094cd" />
					</svg></svg>
			</g>
		</g>
		<g transform="translate(67,17)">
			<g data-gra="path-name" fill-rule="" opacity="1" transform="matrix(1,0,0,1,0,0)">
				<g transform="scale(1)">
					<g>
						<path
							d="M10.2-36.04L10.2-36.04Q14.41-35.16 14.24-34.8L14.24-34.8Q12.83-33.93 11.78-32.17L11.78-32.17Q11.6-31.82 11.43-31.64L11.43-31.64 17.93-31.64Q22.85-31.64 24.08-31.82L24.08-31.82 24.08-28.65Q23.91-28.65 23.55-28.65L23.55-28.65Q21.45-28.83 17.23-28.83L17.23-28.83Q17.23-27.95 16.88-25.66L16.88-25.66Q16.7-24.96 16.7-24.61L16.7-24.61 19.51-24.61Q22.15-24.61 25.31-24.96L25.31-24.96 25.31-21.62Q22.32-21.97 19.51-21.97L19.51-21.97 16.17-21.97 16-21.09Q20.74-19.16 25.14-17.05L25.14-17.05 22.68-14.24Q18.46-17.4 14.94-18.98L14.94-18.98Q12.83-15.64 6.5-11.43L6.5-11.43Q5.63-12.48 2.46-14.06L2.46-14.06Q10.72-16.35 12.83-21.97L12.83-21.97 9.32-21.97Q6.86-21.97 4.04-21.62L4.04-21.62 4.04-24.96Q5.8-24.79 9.49-24.61L9.49-24.61 13.36-24.61Q13.89-26.19 13.89-29L13.89-29 9.67-29Q9.14-28.3 8.26-26.89L8.26-26.89Q7.56-26.02 7.38-25.66L7.38-25.66 4.04-27.07Q7.56-30.76 10.2-36.04ZM36.56-19.16L36.56-28.48 30.06-28.48 30.06-19.16 36.56-19.16ZM31.99-7.38L31.99-10.55 14.41-10.55 14.41-7.38 31.99-7.38ZM31.99-4.75L14.41-4.75 14.41-1.58 31.99-1.58 31.99-4.75ZM40.25-31.64L40.25-31.64Q40.25-31.64 40.08-27.77L40.08-27.77 40.08-19.69Q40.25-16.17 40.25-16.17L40.25-16.17Q38.32-16.35 36.39-16.52L36.39-16.52 30.76-16.52Q28.48-16.52 26.37-16.35L26.37-16.35Q26.54-16.35 26.54-19.34L26.54-19.34 26.54-27.6Q26.54-29.71 26.37-31.64L26.37-31.64Q27.95-31.11 30.23-31.11L30.23-31.11 36.39-31.11Q39.38-31.11 40.25-31.64ZM10.9-13.89L10.9-13.89Q12.66-13.54 14.94-13.54L14.94-13.54 31.64-13.54Q35.86-13.71 35.68-13.71L35.68-13.71Q35.33-12.48 35.33-9.49L35.33-9.49 35.33 0.7Q35.33 2.29 35.51 4.04L35.51 4.04 31.64 4.04Q31.82 3.16 31.82 1.05L31.82 1.05 14.41 1.05Q14.41 3.69 14.41 3.87L14.41 3.87 10.55 3.87Q11.07 1.76 11.07 0L11.07 0 11.07-10.2Q11.07-12.83 10.9-13.89ZM56.6-36.39L56.6-36.39Q60.29-36.39 60.47-35.86L60.47-35.86Q60.47-35.68 60.29-35.51L60.29-35.51Q59.94-34.8 59.94-34.28L59.94-34.28 59.94-32.7Q62.75-32.7 65.04-32.87L65.04-32.87Q65.57-32.87 65.74-32.87L65.74-32.87 65.74-29.88Q65.21-29.88 64.34-29.88L64.34-29.88Q62.23-30.06 59.94-30.06L59.94-30.06 59.94-27.77Q65.74-27.77 65.57-27.95L65.57-27.95 65.57-25.14Q65.57-25.14 65.21-25.14L65.21-25.14Q63.28-25.31 59.94-25.31L59.94-25.31 59.94-23.03Q64.51-23.2 65.92-23.2L65.92-23.2 65.92-20.04Q65.21-20.21 61.52-20.39L61.52-20.39Q60.47-20.39 59.94-20.39L59.94-20.39Q60.12-18.46 60.12-18.46L60.12-18.46 56.78-18.46Q56.95-19.34 56.95-20.39L56.95-20.39Q50.27-20.21 48.87-20.21L48.87-20.21 48.87-23.2Q49.39-23.2 50.1-23.2L50.1-23.2Q52.73-23.03 56.95-23.03L56.95-23.03 56.95-25.31Q55.2-25.31 50.8-25.31L50.8-25.31 50.8-28.13Q51.68-27.95 55.9-27.77L55.9-27.77Q55.37-27.77 56.95-27.77L56.95-27.77 56.95-30.06Q52.21-30.06 49.39-29.88L49.39-29.88 49.39-32.87Q49.39-32.7 56.95-32.7L56.95-32.7Q56.95-33.22 56.78-34.1L56.78-34.1Q56.78-36.39 56.6-36.39ZM64.86-4.22L67.85-5.8Q69.79-4.04 71.02-1.93L71.02-1.93 67.68-0.35Q66.62-2.64 64.86-4.22L64.86-4.22ZM77.34-3.16L80.51-5.27Q84.55-2.11 87.01 0.88L87.01 0.88 83.5 3.52Q80.86-0.35 77.34-3.16L77.34-3.16ZM57.3-4.39L57.3-4.39Q62.05-4.39 62.05-3.69L62.05-3.69Q62.05-3.34 61.7-2.99L61.7-2.99Q61.17-2.11 61.17-1.23L61.17-1.23Q60.64 1.23 64.51 0.88L64.51 0.88Q67.15 0.88 69.79 0.88L69.79 0.88Q74 0.88 74.18-3.16L74.18-3.16Q75.94-1.05 78.05-0.35L78.05-0.35Q76.29 4.39 70.66 3.87L70.66 3.87Q63.63 4.04 63.28 4.04L63.28 4.04Q56.25 4.92 57.48 0L57.48 0Q57.48-3.69 57.3-4.39ZM51.68-4.39L51.68-4.39 55.55-3.34Q53.79 0.88 51.86 4.04L51.86 4.04Q50.27 2.99 47.99 2.64L47.99 2.64Q48.34 1.93 49.04 0.53L49.04 0.53Q50.98-2.64 51.68-4.39ZM77.52-18.46L74.18-18.46 74.36-20.74Q68.55-20.74 67.85-20.57L67.85-20.57 67.85-23.38Q68.91-23.2 74.36-23.2L74.36-23.2 74.36-25.49Q71.37-25.49 69.08-25.31L69.08-25.31Q68.55-25.31 68.38-25.31L68.38-25.31 68.38-28.3Q68.2-27.95 74.36-27.95L74.36-27.95 74.36-30.06Q69.79-30.06 68.03-29.88L68.03-29.88 68.03-33.05Q69.08-32.87 72.42-32.7L72.42-32.7Q73.65-32.7 74.36-32.7L74.36-32.7Q74.36-36.39 74.18-36.39L74.18-36.39Q77.7-36.39 77.7-36.04L77.7-36.04Q77.7-35.86 77.52-35.33L77.52-35.33Q77.34-34.8 77.34-34.28L77.34-34.28 77.34-32.7Q81.56-32.7 84.2-32.87L84.2-32.87Q84.9-32.87 85.43-32.87L85.43-32.87 85.43-30.06Q85.43-30.06 77.34-30.06L77.34-30.06 77.34-27.95Q80.68-27.95 82.97-28.13L82.97-28.13Q83.85-28.13 84.2-28.13L84.2-28.13 84.2-25.31Q84.2-25.14 81.74-25.31L81.74-25.31Q79.28-25.49 77.34-25.49L77.34-25.49 77.34-23.2Q82.79-23.2 83.67-23.2L83.67-23.2Q85.08-23.2 86.13-23.38L86.13-23.38 86.13-20.39Q84.9-20.57 77.34-20.57L77.34-20.57 77.52-18.46ZM58.01-18.11L58.01-18.11 74.53-18.11Q80.51-18.28 82.44-18.46L82.44-18.46Q82.44-18.11 82.44-17.23L82.44-17.23Q82.27-14.59 82.27-11.6L82.27-11.6Q82.27-7.91 82.62-5.8L82.62-5.8Q80.86-6.15 75.76-6.15L75.76-6.15 58.18-6.15Q54.14-6.15 52.56-5.98L52.56-5.98 52.56-9.14Q54.49-8.79 58.18-8.79L58.18-8.79 78.75-8.79 78.75-10.9 59.59-10.9Q54.84-10.9 53.61-10.72L53.61-10.72 53.61-13.89Q56.25-13.54 59.59-13.54L59.59-13.54 78.57-13.54 78.57-15.47 58.01-15.47Q56.43-15.47 53.96-15.29L53.96-15.29Q52.56-15.29 52.21-15.29L52.21-15.29 52.21-18.46Q52.56-18.46 53.09-18.46L53.09-18.46Q55.72-18.11 58.01-18.11ZM101.6-36.21L101.6-36.21Q102.48-36.21 104.06-36.04L104.06-36.04Q106.35-36.04 106.35-35.86L106.35-35.86Q106.35-35.68 106.17-35.33L106.17-35.33Q105.29-33.93 105.29-30.76L105.29-30.76 106.7-30.76Q108.11-30.76 109.69-30.94L109.69-30.94 109.69-27.6Q109.69-27.6 109.34-27.6L109.34-27.6Q107.58-27.77 106.7-27.77L106.7-27.77 105.29-27.77 105.29-23.38 106.35-23.38Q111.27-27.77 112.32-33.22L112.32-33.22Q116.72-31.29 116.54-30.94L116.54-30.94Q116.54-30.76 116.19-30.41L116.19-30.41Q115.14-29.71 114.26-28.48L114.26-28.48Q113.2-26.89 110.57-24.08L110.57-24.08Q110.21-23.55 110.04-23.38L110.04-23.38Q113.03-23.38 114.26-23.55L114.26-23.55 114.26-20.21Q112.85-20.39 110.04-20.39L110.04-20.39 107.58-20.39Q107.05-19.86 105.47-18.46L105.47-18.46Q103.89-16.88 103.18-16.35L103.18-16.35 108.46-16.35Q110.21-16.35 111.8-16.52L111.8-16.52Q112.15-16.52 112.32-16.52L112.32-16.52 112.32-13.71 106.35-10.02 106.35-8.44Q113.38-9.67 114.26-10.37L114.26-10.37 113.91-6.86Q112.15-6.68 106.35-5.27L106.35-5.27 106.35 0.7Q106.17 4.04 99.84 4.04L99.84 4.04Q99.32 1.41 98.26-0.18L98.26-0.18Q103.01 0.35 103.01-1.05L103.01-1.05 103.01-4.92Q95.1-3.69 93.69-2.81L93.69-2.81 92.29-7.21Q94.04-6.86 103.01-7.91L103.01-7.91 103.01-11.07 107.4-13.54 99.49-13.54Q98.79-13.01 96.86-11.6L96.86-11.6Q94.57-9.84 93.87-9.32L93.87-9.32Q92.64-11.07 90.88-11.95L90.88-11.95Q93.52-13.18 95.63-14.41L95.63-14.41Q96.33-14.94 96.86-15.12L96.86-15.12 96.86-16.7Q97.56-16.52 98.96-16.52L98.96-16.52Q99.32-16.88 100.9-18.11L100.9-18.11Q102.48-19.34 103.71-20.39L103.71-20.39 97.21-20.39Q92.29-20.39 92.29-20.21L92.29-20.21 92.29-23.55Q94.22-23.38 97.03-23.38L97.03-23.38 101.95-23.38 101.95-27.77 99.32-27.77Q97.56-27.77 95.1-27.6L95.1-27.6 95.1-30.94Q96.86-30.76 99.14-30.76L99.14-30.76 101.95-30.76Q101.95-35.16 101.6-36.21ZM124.8-23.55L124.8-23.55 120.23-23.55Q119.18-21.27 117.6-18.81L117.6-18.81Q117.25-18.11 116.89-17.58L116.89-17.58 119.53-18.11Q120.59-11.43 121.99-8.79L121.99-8.79Q124.45-14.24 124.8-23.55ZM112.68-16.88L112.68-16.88Q117.95-23.03 120.06-35.86L120.06-35.86Q124.98-35.16 125.33-34.63L125.33-34.63Q125.33-34.45 124.98-34.1L124.98-34.1Q124.1-33.05 123.57-31.46L123.57-31.46Q123.22-30.59 121.82-26.72L121.82-26.72 128.5-26.72Q130.96-26.72 133.24-26.89L133.24-26.89 133.24-23.38Q133.24-23.55 128.5-23.55L128.5-23.55Q127.97-12.66 124.28-5.63L124.28-5.63Q127.97-1.41 133.77 0L133.77 0Q131.13 1.05 129.73 3.52L129.73 3.52Q124.8 0.53 121.99-2.81L121.99-2.81Q119 0.53 112.15 4.22L112.15 4.22Q110.39 2.11 107.75 1.23L107.75 1.23Q115.84-0.53 120.06-5.45L120.06-5.45Q117.95-9.49 116.37-16.52L116.37-16.52 114.61-13.89Q113.91-15.64 112.68-16.88ZM146.78-36.04L146.78-36.04Q151.17-35.68 151.7-35.16L151.7-35.16Q151.7-34.98 151.52-34.63L151.52-34.63Q151.17-33.75 151-32.7L151-32.7Q150.64-30.41 150.64-22.68L150.64-22.68Q150.47-12.3 149.94-8.09L149.94-8.09Q148.71-1.05 140.45 4.39L140.45 4.39Q139.04 2.64 136.23 1.41L136.23 1.41Q145.37-1.23 146.6-10.02L146.6-10.02Q146.95-13.89 147.13-23.38L147.13-23.38Q147.13-32.52 146.78-36.04ZM153.46-30.06L153.46-33.93Q157.15-33.57 160.14-33.57L160.14-33.57 169.63-33.57Q173.67-33.57 177.01-33.93L177.01-33.93 177.01-30.06Q174.38-30.41 169.63-30.41L169.63-30.41 166.11-30.41 166.11-24.08 168.22-24.08Q172.62-24.08 175.43-24.61L175.43-24.61Q175.25-21.62 175.08-17.58L175.08-17.58 175.08-5.45Q174.73-2.64 168.57-1.93L168.57-1.93Q168.22-4.04 166.64-6.5L166.64-6.5Q171.21-5.98 171.56-8.26L171.56-8.26 171.56-20.92 166.11-20.92 166.11-4.39Q166.11-0.35 166.46 3.52L166.46 3.52 162.07 3.52Q162.42 1.23 162.42-4.39L162.42-4.39 162.42-20.92 157.68-20.92 157.68-9.84Q157.85-4.22 158.03-2.29L158.03-2.29 153.63-2.29Q153.98-4.22 153.98-10.02L153.98-10.02 153.98-18.11Q153.98-23.55 153.81-24.43L153.81-24.43Q158.2-24.08 160.66-24.08L160.66-24.08 162.42-24.08 162.42-30.41 160.14-30.41Q156.8-30.41 153.46-30.06L153.46-30.06ZM138.69-31.46L138.69-31.46Q143.61-31.46 143.61-30.76L143.61-30.76Q143.61-30.59 143.44-30.06L143.44-30.06Q142.73-28.65 142.73-27.07L142.73-27.07 142.73-13.89Q142.73-10.02 143.09-6.68L143.09-6.68 138.52-6.68Q138.69-8.09 138.87-13.71L138.87-13.71 138.87-28.65Q138.87-30.06 138.69-31.46Z"
							transform="translate(-2, 36)" />
					</g>
				</g>
			</g>
		</g>
	</g>
</svg>