<?xml version="1.0" standalone="no"?><!DOCTYPE svg PUBLIC "-//W3C//DTD SVG 1.1//EN" "http://www.w3.org/Graphics/SVG/1.1/DTD/svg11.dtd"><svg t="1689910477458" class="icon" viewBox="0 0 1024 1024" version="1.1" xmlns="http://www.w3.org/2000/svg" p-id="24688" xmlns:xlink="http://www.w3.org/1999/xlink" width="200" height="200"><path d="M193.841988 1024c-12.159924 0-24.519847-1.967988-36.66377-6.023962C111.146505 1002.592134 80.850695 961.376391 80.0027 912.984694V112.805695C80.210699 69.685964 104.298548 31.126205 142.866307 11.974325a113.095293 113.095293 0 0 1 118.495259 10.639934l371.597678 281.198242a39.879751 39.879751 0 0 1 7.679952 56.04765 40.303748 40.303748 0 0 1-56.319648 7.631952l-371.405679-281.038243c-14.559909-10.695933-28.719821-5.599965-34.159786-2.903982-5.487966 2.735983-18.287886 11.071931-18.375885 29.455816v798.875007c0.519997 21.295867 17.247892 28.535822 22.38386 30.255811 5.103968 1.703989 22.671858 5.943963 35.999775-10.383935L427.280529 642.602384a40.239749 40.239749 0 0 1 32.639796-16.671896H827.358029c21.239867-0.591996 28.591821-17.59189 30.35181-22.807858 1.767989-5.279967 6.223961-23.455853-10.599933-36.78377l-89.975438-68.079574a39.879751 39.879751 0 0 1-7.671952-56.05565 40.311748 40.311748 0 0 1 56.319648-7.631952l90.263436 68.303573 0.495997 0.383998c38.239761 29.895813 52.919669 79.063506 37.383766 125.255217-15.495903 46.071712-56.823645 76.455522-105.303342 77.407516H480.560196l-197.094768 273.286292a40.087749 40.087749 0 0 1-1.023993 1.359991C260.329573 1008.640096 227.841776 1024 193.841988 1024z" fill="#1296db" p-id="24689" data-spm-anchor-id="a313x.7781069.0.i3" class="selected"></path></svg>